<?xml version="1.0" encoding="UTF-8"?>
<svg xmlns="http://www.w3.org/2000/svg" viewBox="43 13 65 76" role="img" aria-labelledby="title desc">
  <title id="title">Humentis monochrome symbol</title>
  <desc id="desc">Single-color two-profile tree symbol.</desc>
  <defs>
  <mask id="adult-hair-cutout" maskUnits="userSpaceOnUse" x="43" y="13" width="65" height="76">
    <rect x="43" y="13" width="65" height="76" fill="white"/>
    <path fill="black" d="M 52.942353 37.223793
    C 50.723529 38.828966 49.372941 41.58069 49.421176 43.965517
    C 48.070588 40.663448 50.337647 37.453103 54.678824 34.793103
C 53.955294 35.802069 53.328235 36.444138 52.942353 37.223793 Z"/>
  </mask>
  </defs>
  <path mask="url(#adult-hair-cutout)" fill="#284C51" fill-rule="evenodd" clip-rule="evenodd" d="M 81 25.9
    C 83.5 25.5 84.5 23.3 83.9 20.5
    C 81.6 21.1 80 21.9 80.1 25.4
    C 80.7 24.3 81.6 23.1 82.6 22.5
    C 81.9 23.4 81.2 24.6 81 25.9
    Z
    M 97.9 32.3
    L 98.1 33.9
    C 101.3 35.9 102.6 38.9 101 43.1
    C 99.3 46.8 95.3 48.4 90.3 48.7
    C 91.9 48.1 92.5 46.6 93.6 46.4
    C 96.4 46.1 97.6 43.7 98.4 41.3
    C 95.1 40.8 91.9 42.1 91.5 45.5
    L 95.5 43.3
    L 91.7 46.6
    C 89.3 48.4 87.1 48.1 85.1 48.5
    C 80.9 49.2 76.9 52.1 77.1 57.6
    C 77.9 66.2 76.1 68.9 71.6 73.6
    C 66.9 78 62.6 78.4 60.4 79
    C 58.4 79.5 56.4 80.6 55.7 82.2
    C 59.4 79.2 62.9 81.2 67.1 79.6
    L 65.9 81
    C 63.5 82.6 61.7 82.4 60.4 84.6
    C 62.6 83.1 63.9 83.7 66.1 82.7
    C 65.9 83.9 66.5 86.2 67.6 87.1
    C 65.5 80.6 72.2 79 73.9 77
    C 73.1 79.5 68.4 82.5 72.7 88.1
    C 70.6 82.5 74.9 81 77 78
    C 79.6 74.9 80.6 69.9 79.7 65.2
    C 79.2 62.6 78.2 59.4 79.4 57.2
    C 81.2 53.6 85.7 54.4 87.9 56.2
    C 86.1 55.4 84.4 55 82.4 55.4
    C 84.7 58.6 87.4 59 91.5 57.9
    C 89.9 53.6 85.4 51.9 81 53.6
    C 83 51.6 85.1 51 88.4 51
    C 91.116 51.028 93.41648 50.64048 95.340954 49.973542
    C 96 49.745 96.1 51.4 99 51.25
    C 98.5 50.2 97.7 49.3 97.081465 49.248339
    C 100.87685 47.37521 102.833 44.309 103.4 41.6
    C 103.6 43.3 103.1 45.6 102.6 47.1
    C 101.8 49.15 100.05 50.35 99.85 52.1
    C 99.71 53.325 100.54 54.5 101.08 55.4
    C 101.404 55.94 100.95 56.5 99.95 56.7
    C 99.5 56.8 99.25 57.02 99.5 57.45
    C 99.75 57.88 99.48 58.15 98.92 58.3
    C 99.08 58.4 99.24 58.54 99.34 58.79
    C 99.44 59.04 99.12 59.18 98.77 59.48
    C 98.28 59.9 98.57 60.73 98.07 61.26
    C 97.77 61.578 97.12 61.76 96.45 61.74
    C 94.72 61.688 92.8 60.643 90.5 61.3
    C 88.8 61.786 87.35 61.596 86.2 62.2
    C 83.4 63.6 81.1 66.4 81.4 69.9
    C 81.4 73.5 84 76.6 85.9 77.5
    C 85.5 72.4 87.9 70.6 90.4 71.2
    C 93 72 96.6 73.3 99.224038 73.1
    C 100.703846 73.465685 103.079327 73.83137 102.845673 69.913316
    C 102.573077 66.778873 104.247596 67.928169 103.546635 65.525096
    L 103.274038 65.316133
    C 104.052885 65.05493 104.442308 64.428041 104.130769 63.696671
    C 103.897115 63.226504 103.897115 62.18169 104.403365 62.077209
    C 105.571635 61.920487 106.50625 61.554802 106 59.778617
    C 104.286538 54.554545 103.975 54.13662 104.130769 53.353009
    C 104.286538 52.569398 105.026442 52.203713 104.9875 50.584251
    C 104.9875 49.539437 104.714904 49.278233 104.714904 46.561716
    C 104.753846 44.994494 104.247596 43.322791 104.247596 43.322791
    C 104.9875 43.270551 105.610577 42.800384 105.961058 41.80781
    C 105.221154 41.75557 104.637019 41.233163 104.208654 40.449552
    C 104.559135 40.606274 104.9875 40.606274 105.49375 40.240589
    C 103.858173 39.665941 103.663462 36.68822 101.872115 35.904609
    C 100.976442 34.337388 99.730288 32.979129 97.9 32.3
    L 97.9 32.3
    Z
    M 84.2 26.2
    C 82.6 28 80.4 28 77.7 30.4
    C 79.9 24.7 78.9 21.1 73.9 17.9
    C 71.6 23.6 72.7 25.4 75.7 28.9
    C 76.5 25.7 75.9 24.1 75.4 21.6
    C 79.2 26.5 76.5 31.5 73.9 34.4
    C 72.7 35.6 71.7 37 70.7 38.5
    C 69.6 33.1 67.4 32.9 66.6 31
    C 65.6 29.4 64.9 25.7 66.9 23.2
    C 66.1 24.9 65.9 26.2 66.1 27.9
    C 69.4 25.4 69.1 24.1 68.4 20.5
    C 64.5 22.4 63.5 24.4 65.2 30.7
    C 61.1 28.5 56.4 30.5 54.1 32.5
    C 51.495294 34.105172 48.794118 36.581724 48.167059 39.333448
    C 47.829412 41.259655 48.311765 43.048276 49.662353 44.653448
    C 50.144706 46.763103 50.530588 47.405172 48.842353 48.276552
    L 47.974118 48.23069
    C 48.311765 48.551724 49.035294 48.964483 49.903529 48.735172
    C 49.565882 50.569655 46.671765 53.137931 45.9 54.00931
    C 45.514118 54.559655 45.707059 55.201724 46.671765 55.568621
    L 47.684706 55.981379
    C 48.311765 56.394138 48.070588 57.036207 47.588235 57.678276
    C 47.154118 58.182759 47.395294 58.87069 48.842353 59.283448
    C 48.070588 59.604483 47.684706 60.475862 48.601176 60.888621
    C 50.241176 62.218621 46.864706 65.52069 50.723529 65.75
    C 52.990588 65.75 54.871765 64.741034 58.248235 65.428966
    C 61.623529 66.11669 63 68.5 63.9 70.6
    C 64.7 72.1 65.4 75.4 64.6 76.9
    C 67.7 75.7 70.4 72.5 70 68.4
    C 70 63.7 69.9 60 67 57.9
    C 68.6 60.1 68.25 61.65 67.7 63.2
    C 67.1 64.9 67.8 66 68.8 66.7
    C 65.8 65.4 65.6 63.4 66 61.8
    C 66.4 60.2 65.5 58.3 65.5 57.4
    C 62.7 56.6 60.05 58.9 58.2 57.7
    C 57.2 57.05 57.75 56 57.25 55.55
    C 56.9 55.25 56.45 55.3 56.55 54.9
    C 56.65 54.65 56.95 54.55 57.1 54.45
    C 56.45 54.35 56.05 54.1 56.35 53.6
    C 56.65 53.1 56.5 52.9 56.05 52.8
    C 55.05 52.6 54.55 52.3 54.9 51.65
    C 55.55 50.6 56.35 49.55 56.15 48.2
    C 55.95 46.45 54.2 45.25 53.4 43.2
    C 52.9 41.7 52.4 39.4 52.6 37.7
    C 53.4 44 57.7 46.4 60.7 47.2
    C 65.9 48.7 69.1 49.4 70.9 55.6
    C 71.4 53 71.5 52.5 73 50
    C 69.5 43 73 37.7 76 34
    C 78.5 30.4 81.1 29 83.2 28.4
    C 82.4 31.2 83.4 32.9 84.7 34.6
    C 84.9 33.6 85 33 85.7 31.7
    C 86 30.9 85.2 29 84.4 31.7
    C 82.6 27.9 86.2 24.7 89.2 25.5
    C 95.9 26.5 97.9 35.1 90.2 40.4
    L 89.4 40.7
    C 91.6 37.5 94.9 34.4 91 28.6
    C 87.7 32.1 85.5 34.1 87.9 39
    C 90 36.4 90.4 31.9 90.4 33
    C 90.6 36 89.2 39.9 86.6 42
    L 82.2 43.7
    C 84.4 41.2 86.6 35.1 79.5 33
    C 78.5 37.6 79 38.5 81.4 41
    C 82.1 39 81.7 37.4 81 36
    C 83.2 38.2 83.4 43.1 79.2 45
    C 74.4 47.9 71 52.6 71.7 59.9
    C 72.6 65.4 73.6 67.2 70.9 73.2
    C 73.7 71 76.5 66.1 75.7 60
    S 78.1 48.7 84.6 45.5
    C 90.2 43 96.9 39.9 96.9 31.9
    C 96.7 25 90.4 22.6 86.4 24.4
    C 85.2 25 85 25.5 84.2 26.2
    Z
    M 73.1 33
    C 74.1 30.1 72.5 28 69.7 26.7
    C 68.9 30 69.9 31.5 72.2 33.2
    L 71.5 29.4
    L 73.1 33
    Z
    M 63.2 27.9
    C 63.4 25.7 61.1 23.9 57.9 24.4
    C 58.4 26.7 59.7 28.6 63 28.5
    L 60.4 25.9
    L 63.2 27.9
    Z
    M 73.3 45.6
    C 75.5 42 75.9 41.6 74.2 45.9
    C 77 44.9 77.9 42.7 77.5 39.7
    C 75 40.1 72.5 42.4 73.3 45.6
    Z
    M 65.4 34.9
    C 63.9 33.1 62.4 33.4 60.6 34.5
    C 62 35.9 63.6 36.5 65.4 34.9
    Z
    M 79 70.9
    C 78.2 74.1 75.4 77.5 75.4 77.5
    C 77.2 74.7 78.5 72.1 79 70.9
    Z
    M 78 65.7
    C 77.5 72 72.6 77.2 67.5 78.1
    C 71.6 77.2 77.4 72.4 78 65.7
    Z
    M 68 48
    C 65.1 46 61.7 45.6 59.6 44.6
    C 53.9 41.7 52.7 32.4 60.7 31.4
    C 65.6 31.2 69.2 36 68.9 42
    C 68.5 46 69.6 48.4 69.6 48.4
    L 68 48
    Z
    M 67.5 44.1
    C 67 38.6 63.6 36.9 57.6 37.2
    C 59.5 43 61.6 43.7 66.2 44.2
    C 64.5 41.7 62.5 39.7 61.1 39.2
    C 63.5 39.7 65.9 41.5 67.5 44.1
    Z
    M 63.9 50.7
    C 62 51 60.1 53.1 59.2 55.2
    C 63.6 56.7 65.6 55.9 67.4 53.5
    C 66 53 64.5 53.1 62.2 53.9
    C 64.2 52.4 66.6 52.4 68.4 52.5
    C 67.4 51.2 65.9 50.6 63.9 50.7
    Z
    M 97.9 37.5
    C 97.1 37.6 96.6 38.1 96.1 38.9
    C 97.7 39.9 98.7 39.5 99.9 38.1
    C 99.1 37.7 98.6 37.4 97.9 37.5
    Z
    M 80.6 73.2
    C 80.1 75 78.2 78 76.7 79.6
    C 79.5 82.4 79 84.7 76.6 87.2
    C 80.2 85.6 80.4 83 79.7 81.4
    C 82.5 83.1 84.6 83.5 85.1 86.7
    C 85.7 85.2 85.2 83.5 84.4 83
    C 86.1 82.9 88.1 83 90.7 83.9
    C 87.9 81.2 85.5 82.7 82.5 81
    C 80.9 80 79.7 78 79.7 77.4
    C 83.1 80.4 85.5 80.4 89.6 80.2
    C 91.4 80.2 93.4 80.5 95.4 81.9
    C 92.2 77.5 88.1 79.5 85 78
    C 83.1 77.2 80.9 74.9 80.6 73.2
    Z
    M 76.1 48.9
    C 69.6 55.6 74.1 65.5 73.5 67.4
    C 75 59.5 71.5 55.4 77.2 49.2
    C 79.5 46.5 85.9 43.7 85.9 43.7
    C 81.6 44.6 78.5 46.1 76.1 48.9
    Z"/>
</svg>
